<svg xmlns="http://www.w3.org/2000/svg" viewBox="0 0 100 100">
  <defs>
    <radialGradient id="iris" cx="50%" cy="46%" r="54%">
      <stop offset="0" stop-color="#07132f"/>
      <stop offset=".48" stop-color="#1d5cb0"/>
      <stop offset=".8" stop-color="#4895e2"/>
      <stop offset="1" stop-color="#071c46"/>
    </radialGradient>
    <line id="circuit" x1="50" y1="3" x2="50" y2="12"/>
    <line id="ray" x1="50" y1="14" x2="50" y2="32"/>
    <circle id="node" cx="50" cy="5" r="1.4"/>
  </defs>

  <circle cx="50" cy="50" r="46" fill="none" stroke="#d7eeff" stroke-width="1.4"/>
  <g fill="none" stroke="#eaf7ff" stroke-width="1.2" stroke-linecap="round" opacity=".82">
    <use href="#circuit"/><use href="#circuit" transform="rotate(30 50 50)"/>
    <use href="#circuit" transform="rotate(60 50 50)"/><use href="#circuit" transform="rotate(90 50 50)"/>
    <use href="#circuit" transform="rotate(120 50 50)"/><use href="#circuit" transform="rotate(150 50 50)"/>
    <use href="#circuit" transform="rotate(180 50 50)"/><use href="#circuit" transform="rotate(210 50 50)"/>
    <use href="#circuit" transform="rotate(240 50 50)"/><use href="#circuit" transform="rotate(270 50 50)"/>
    <use href="#circuit" transform="rotate(300 50 50)"/><use href="#circuit" transform="rotate(330 50 50)"/>
  </g>

  <circle cx="50" cy="50" r="38" fill="url(#iris)" stroke="#5da8ff" stroke-width=".8"/>
  <g fill="none" stroke="#b8e2ff" stroke-width="1.15" stroke-linecap="round" opacity=".82">
    <use href="#ray"/><use href="#ray" transform="rotate(22.5 50 50)"/>
    <use href="#ray" transform="rotate(45 50 50)"/><use href="#ray" transform="rotate(67.5 50 50)"/>
    <use href="#ray" transform="rotate(90 50 50)"/><use href="#ray" transform="rotate(112.5 50 50)"/>
    <use href="#ray" transform="rotate(135 50 50)"/><use href="#ray" transform="rotate(157.5 50 50)"/>
    <use href="#ray" transform="rotate(180 50 50)"/><use href="#ray" transform="rotate(202.5 50 50)"/>
    <use href="#ray" transform="rotate(225 50 50)"/><use href="#ray" transform="rotate(247.5 50 50)"/>
    <use href="#ray" transform="rotate(270 50 50)"/><use href="#ray" transform="rotate(292.5 50 50)"/>
    <use href="#ray" transform="rotate(315 50 50)"/><use href="#ray" transform="rotate(337.5 50 50)"/>
  </g>

  <circle cx="50" cy="50" r="23" fill="none" stroke="#d7efff" stroke-width=".7" opacity=".68"/>
  <circle cx="50" cy="50" r="17" fill="#081936" stroke="#b8e7ff" stroke-width="1.7"/>
  <circle cx="50" cy="50" r="12.5" fill="#020b20"/>
  <g fill="#f6fcff">
    <use href="#node"/><use href="#node" transform="rotate(45 50 50)"/>
    <use href="#node" transform="rotate(90 50 50)"/><use href="#node" transform="rotate(135 50 50)"/>
    <use href="#node" transform="rotate(180 50 50)"/><use href="#node" transform="rotate(225 50 50)"/>
    <use href="#node" transform="rotate(270 50 50)"/><use href="#node" transform="rotate(315 50 50)"/>
  </g>
</svg>
